<?xml version="1.0" encoding="utf-8"?>
<!-- Generator: Adobe Illustrator 19.1.1, SVG Export Plug-In . SVG Version: 6.00 Build 0)  -->
<svg version="1.1" id="Capa_1" xmlns="http://www.w3.org/2000/svg" xmlns:xlink="http://www.w3.org/1999/xlink" x="0px" y="0px"
	 viewBox="0 0 226.5 54.1" style="enable-background:new 0 0 226.5 54.1;" xml:space="preserve">
<style type="text/css">
	.st0{clip-path:url(#SVGID_2_);}
	.st1{fill:#E6224B;}
	.st2{fill:#E6263A;}
	.st3{fill:#E94557;}
	.st4{fill:#D62042;}
	.st5{fill:#D62043;}
	.st6{fill:#E6213D;}
	.st7{fill:#8E1633;}
	.st8{fill:#E62246;}
	.st9{fill:#4A4A49;}
	.st10{fill:#8C1913;}
	.st11{fill:#C41C1B;}
	.st12{fill:#AD1917;}
	.st13{clip-path:url(#SVGID_2_);fill:none;stroke:#FFFFFF;stroke-linecap:round;stroke-linejoin:round;stroke-miterlimit:10;}
	.st14{clip-path:url(#SVGID_2_);fill:#C6C6C6;}
	.st15{fill:#FFFFFF;}
	.st16{clip-path:url(#SVGID_4_);}
	.st17{fill:none;stroke:#8C1913;stroke-width:1.5;stroke-linecap:round;stroke-linejoin:round;stroke-miterlimit:10;}
	.st18{clip-path:url(#SVGID_6_);}
	.st19{clip-path:url(#SVGID_6_);fill:#D62042;}
	.st20{clip-path:url(#SVGID_8_);}
	.st21{clip-path:url(#SVGID_8_);fill:none;stroke:#FFFFFF;stroke-linecap:round;stroke-linejoin:round;stroke-miterlimit:10;}
	.st22{clip-path:url(#SVGID_8_);fill:#C6C6C6;}
	.st23{clip-path:url(#SVGID_8_);fill:#8E1633;}
	.st24{clip-path:url(#SVGID_10_);}
	.st25{clip-path:url(#SVGID_10_);fill:#C6C6C6;}
	.st26{clip-path:url(#SVGID_10_);fill:none;stroke:#FFFFFF;stroke-linecap:round;stroke-linejoin:round;stroke-miterlimit:10;}
	.st27{clip-path:url(#SVGID_12_);}
	.st28{clip-path:url(#SVGID_12_);fill:#C6C6C6;}
	.st29{clip-path:url(#SVGID_12_);fill:none;stroke:#FFFFFF;stroke-linecap:round;stroke-linejoin:round;stroke-miterlimit:10;}
	.st30{clip-path:url(#SVGID_12_);fill:#8E1633;}
	.st31{clip-path:url(#SVGID_14_);}
	.st32{clip-path:url(#SVGID_14_);fill:none;stroke:#FFFFFF;stroke-linecap:round;stroke-linejoin:round;stroke-miterlimit:10;}
	.st33{clip-path:url(#SVGID_14_);fill:#C6C6C6;}
	.st34{clip-path:url(#SVGID_14_);fill:none;stroke:#8E1633;stroke-miterlimit:10;}
	.st35{clip-path:url(#SVGID_14_);fill:#8E1633;}
</style>
<g>
	<defs>
		<rect id="SVGID_3_" width="226.5" height="54.1"/>
	</defs>
	<clipPath id="SVGID_2_">
		<use xlink:href="#SVGID_3_"  style="overflow:visible;"/>
	</clipPath>
	<g class="st0">
		<g>
			<polygon class="st1" points="158,5.3 191.9,9.6 189.9,-7.8 			"/>
			<polygon class="st2" points="191.9,9.6 207.5,-12.3 189.9,-7.8 			"/>
			<polygon class="st5" points="158,5.3 189.9,-7.8 160.8,-16.4 			"/>
			<polygon class="st3" points="191.9,9.6 226.5,-17.2 200.6,-10.6 			"/>
			<polygon class="st3" points="59.3,11.9 89.6,1.5 50.7,-1.1 			"/>
			<polygon class="st6" points="1.6,-16.5 0,-15.1 0,-3.1 34.6,10.1 50.7,-1.1 			"/>
			<polygon class="st5" points="123,-27.8 132,1.8 160.8,-16.3 			"/>
			<polygon class="st7" points="89.6,1.5 111.9,2.6 123,-27.8 			"/>
			<polygon class="st1" points="132,1.8 158,5.3 160.8,-16.4 			"/>
			<polygon class="st8" points="50.7,-1.1 89.6,1.5 75.1,-16.7 			"/>
			<polygon class="st3" points="75.1,-16.7 89.6,1.5 106.2,-13.1 			"/>
			<polygon class="st6" points="123,-27.8 111.9,2.6 132,1.8 			"/>
			<polygon class="st3" points="111.9,2.6 132.6,10.8 132,1.8 			"/>
			<polygon class="st7" points="0,-3.1 0,34.3 50.7,-1.1 			"/>
		</g>
		<g>
			<polygon class="st1" points="59.3,11.9 50.7,-1.1 36.6,27.5 			"/>
			<polygon class="st2" points="0,13.1 25.9,30.3 36.6,27.5 			"/>
			<polygon class="st3" points="36.6,27.5 25.9,30.3 23.1,48.2 27,42.2 27,42.2 			"/>
			<polygon class="st5" points="50.7,-1.1 0,13.1 36.6,27.5 			"/>
			<polygon class="st5" points="59.3,11.9 36.6,27.5 66.6,39.7 			"/>
			<polygon class="st6" points="36.6,27.5 23.1,48.2 49.5,32.8 			"/>
			<polygon class="st5" points="23.1,48.2 46.9,52.6 66.6,39.7 			"/>
			<polygon class="st5" points="111.9,2.6 89.6,1.5 94.5,18 			"/>
			<polygon class="st3" points="0,13.1 0,31.2 25.9,30.3 			"/>
			<polygon class="st7" points="226.5,22.9 226.5,-17.2 191.9,9.6 			"/>
			<polygon class="st3" points="209.3,49.9 175.8,20.8 169.7,51.1 			"/>
			<polygon class="st7" points="169.7,51.1 175.8,20.8 151.4,36.5 			"/>
			<polygon class="st5" points="191.9,9.6 158,5.3 175.8,20.8 			"/>
			<polygon class="st1" points="204.7,45.8 209.3,49.9 209.3,49.9 226.5,34.8 175.8,20.8 204.7,45.8 			"/>
			<polygon class="st3" points="158,5.3 132.6,10.8 175.8,20.8 			"/>
			<polygon class="st6" points="226.5,34.8 226.5,22.9 175.8,20.8 			"/>
			<polygon class="st5" points="66.6,39.6 103.5,47.5 94.5,17.9 			"/>
			<polygon class="st7" points="122.4,32.8 132.6,10.8 103.5,47.6 			"/>
			<polygon class="st7" points="89.6,1.5 59.3,11.9 94.5,18 			"/>
			<polygon class="st1" points="94.5,18 59.3,11.9 66.6,39.7 			"/>
			<polygon class="st7" points="0,31.2 0,43.9 25.9,30.3 			"/>
			<polygon class="st5" points="23.1,48.2 25.9,30.3 0,43.9 			"/>
			<polygon class="st8" points="175.8,20.8 132.6,10.8 151.4,36.5 			"/>
			<polygon class="st3" points="151.4,36.5 132.6,10.8 122.4,32.8 			"/>
			<polygon class="st6" points="103.5,47.6 132.6,10.8 94.5,18 			"/>
			<polygon class="st1" points="132.6,10.8 111.9,2.6 94.5,18 			"/>
			<polygon class="st3" points="66.6,39.7 49.5,32.8 23.1,48.2 			"/>
		</g>
		<polygon class="st7" points="132.6,10.8 132,1.8 158,5.3 		"/>
		<polygon class="st3" points="226.5,22.9 191.9,9.6 175.8,20.8 		"/>
	</g>
</g>
</svg>
