<?xml version="1.0" encoding="utf-8"?>
<!-- Generator: Adobe Illustrator 19.1.1, SVG Export Plug-In . SVG Version: 6.00 Build 0)  -->
<svg version="1.1" id="Capa_1" xmlns="http://www.w3.org/2000/svg" xmlns:xlink="http://www.w3.org/1999/xlink" x="0px" y="0px"
	 viewBox="0 0 18.5 22.4" style="enable-background:new 0 0 18.5 22.4;" xml:space="preserve">
<style type="text/css">
	.st0{fill:#E6224B;}
	.st1{fill:#E6263A;}
	.st2{fill:#E94557;}
	.st3{fill:#D62042;}
	.st4{fill:#D62043;}
	.st5{fill:#E6213D;}
	.st6{fill:#8E1633;}
	.st7{fill:#E62246;}
	.st8{fill:#8C1913;}
	.st9{fill:#FFFFFF;}
</style>
<g>
	<g>
		<path class="st9" d="M11.6,22.4c-0.1,0-0.3,0-0.3-0.1L0.2,11.5C0.1,11.4,0,11.3,0,11.2s0.1-0.3,0.2-0.4L11.3,0.1
			c0.2-0.2,0.5-0.2,0.7,0c0.2,0.2,0.2,0.5,0,0.7L1.2,11.2L12,21.6c0.2,0.2,0.2,0.5,0,0.7C11.9,22.4,11.7,22.4,11.6,22.4z"/>
	</g>
	<g>
		<path class="st9" d="M18,22.4c-0.1,0-0.3,0-0.3-0.1L6.6,11.5c-0.1-0.1-0.2-0.2-0.2-0.4s0.1-0.3,0.2-0.4L17.7,0.1
			c0.2-0.2,0.5-0.2,0.7,0c0.2,0.2,0.2,0.5,0,0.7L7.7,11.2l10.7,10.4c0.2,0.2,0.2,0.5,0,0.7C18.3,22.4,18.2,22.4,18,22.4z"/>
	</g>
</g>
</svg>
