<?xml version="1.0" encoding="utf-8"?>
<!-- Generator: Adobe Illustrator 19.1.1, SVG Export Plug-In . SVG Version: 6.00 Build 0)  -->
<svg version="1.1" id="Capa_1" xmlns="http://www.w3.org/2000/svg" xmlns:xlink="http://www.w3.org/1999/xlink" x="0px" y="0px"
	 viewBox="0 0 12.2 14.6" style="enable-background:new 0 0 12.2 14.6;" xml:space="preserve">
<style type="text/css">
	.st0{clip-path:url(#SVGID_2_);}
	.st1{fill:#E6224B;}
	.st2{fill:#E6263A;}
	.st3{fill:#E94557;}
	.st4{fill:#D62042;}
	.st5{fill:#D62043;}
	.st6{fill:#E6213D;}
	.st7{fill:#8E1633;}
	.st8{fill:#E62246;}
	.st9{fill:#4A4A49;}
	.st10{fill:#8C1913;}
	.st11{fill:#C41C1B;}
	.st12{fill:#AD1917;}
	.st13{clip-path:url(#SVGID_2_);fill:none;stroke:#FFFFFF;stroke-linecap:round;stroke-linejoin:round;stroke-miterlimit:10;}
	.st14{clip-path:url(#SVGID_2_);fill:#C6C6C6;}
	.st15{fill:#FFFFFF;}
	.st16{clip-path:url(#SVGID_4_);}
	.st17{fill:none;stroke:#8C1913;stroke-width:1.5;stroke-linecap:round;stroke-linejoin:round;stroke-miterlimit:10;}
	.st18{clip-path:url(#SVGID_6_);}
	.st19{clip-path:url(#SVGID_6_);fill:#D62042;}
	.st20{clip-path:url(#SVGID_8_);}
	.st21{clip-path:url(#SVGID_8_);fill:none;stroke:#FFFFFF;stroke-linecap:round;stroke-linejoin:round;stroke-miterlimit:10;}
	.st22{clip-path:url(#SVGID_8_);fill:#C6C6C6;}
	.st23{clip-path:url(#SVGID_8_);fill:#8E1633;}
	.st24{clip-path:url(#SVGID_10_);}
	.st25{clip-path:url(#SVGID_10_);fill:#C6C6C6;}
	.st26{clip-path:url(#SVGID_10_);fill:none;stroke:#FFFFFF;stroke-linecap:round;stroke-linejoin:round;stroke-miterlimit:10;}
	.st27{clip-path:url(#SVGID_12_);}
	.st28{clip-path:url(#SVGID_12_);fill:#C6C6C6;}
	.st29{clip-path:url(#SVGID_12_);fill:none;stroke:#FFFFFF;stroke-linecap:round;stroke-linejoin:round;stroke-miterlimit:10;}
	.st30{clip-path:url(#SVGID_12_);fill:#8E1633;}
	.st31{clip-path:url(#SVGID_14_);}
	.st32{clip-path:url(#SVGID_14_);fill:none;stroke:#FFFFFF;stroke-linecap:round;stroke-linejoin:round;stroke-miterlimit:10;}
	.st33{clip-path:url(#SVGID_14_);fill:#C6C6C6;}
	.st34{clip-path:url(#SVGID_14_);fill:none;stroke:#8E1633;stroke-miterlimit:10;}
	.st35{clip-path:url(#SVGID_14_);fill:#8E1633;}
</style>
<g>
	<path class="st15" d="M12.2,14.6H0v-0.5c0-2.1,1.2-3.9,3.2-4.9C1.8,8.3,1,6.7,1,5.1C1,2.3,3.3,0,6.1,0s5.1,2.3,5.1,5.1
		c0,1.7-0.8,3.2-2.1,4.1c1.9,1,3.2,2.8,3.2,4.9V14.6z M1,13.6h10.2c-0.2-1.8-1.5-3.3-3.4-3.9L6.5,9.4l1.2-0.5
		c1.5-0.6,2.5-2.1,2.5-3.8C10.2,2.8,8.4,1,6.1,1S2,2.8,2,5.1c0,1.6,1,3.1,2.5,3.8l1.2,0.5L4.4,9.8C2.5,10.3,1.2,11.9,1,13.6z"/>
</g>
</svg>
