<?xml version="1.0" encoding="utf-8"?>
<!-- Generator: Adobe Illustrator 19.1.1, SVG Export Plug-In . SVG Version: 6.00 Build 0)  -->
<svg version="1.1" id="Capa_1" xmlns="http://www.w3.org/2000/svg" xmlns:xlink="http://www.w3.org/1999/xlink" x="0px" y="0px"
	 viewBox="0 0 20.1 21.7" style="enable-background:new 0 0 20.1 21.7;" xml:space="preserve">
<style type="text/css">
	.st0{fill:#E6224B;}
	.st1{fill:#E6263A;}
	.st2{fill:#E94557;}
	.st3{fill:#D62042;}
	.st4{fill:#D62043;}
	.st5{fill:#E6213D;}
	.st6{fill:#8E1633;}
	.st7{fill:#E62246;}
	.st8{fill:#8C1913;}
	.st9{fill:#FFFFFF;}
</style>
<g>
	<g>
		<path class="st8" d="M18.1,2v13.3h-1.3h-1.1l-0.6,0.9l-0.8,1.3L14,18l-0.3-0.4l-0.8-1.3l-0.6-0.9h-1.1H2V2H18.1 M20.1,0H0v17.3
			h11.2l0.8,1.3l2,3.1l2-3.1l0.8-1.3h3.3V0L20.1,0z"/>
	</g>
	<g>
		<path class="st8" d="M5.7,7.5C5,7.5,4.4,8,4.4,8.7c0,0.6,0.5,1.1,1.2,1.1s1.2-0.5,1.2-1.1C6.9,8,6.3,7.5,5.7,7.5L5.7,7.5z"/>
	</g>
	<g>
		<path class="st8" d="M10.1,7.5C9.4,7.5,8.8,8,8.8,8.7c0,0.6,0.5,1.1,1.2,1.1c0.7,0,1.2-0.5,1.2-1.1C11.3,8,10.7,7.5,10.1,7.5
			L10.1,7.5z"/>
	</g>
	<g>
		<path class="st8" d="M14.4,7.5c-0.7,0-1.2,0.5-1.2,1.1c0,0.6,0.5,1.1,1.2,1.1s1.2-0.5,1.2-1.1C15.7,8,15.1,7.5,14.4,7.5L14.4,7.5z
			"/>
	</g>
</g>
</svg>
