<?xml version="1.0" encoding="utf-8"?>
<!-- Generator: Adobe Illustrator 19.1.1, SVG Export Plug-In . SVG Version: 6.00 Build 0)  -->
<svg version="1.1" id="Capa_1" xmlns="http://www.w3.org/2000/svg" xmlns:xlink="http://www.w3.org/1999/xlink" x="0px" y="0px"
	 viewBox="0 0 226.5 85.5" style="enable-background:new 0 0 226.5 85.5;" xml:space="preserve">
<style type="text/css">
	.st0{fill:#E6224B;}
	.st1{fill:#E6263A;}
	.st2{fill:#E94557;}
	.st3{fill:#D62042;}
	.st4{fill:#D62043;}
	.st5{fill:#E6213D;}
	.st6{fill:#8E1633;}
	.st7{fill:#E62246;}
	.st8{fill:#8C1913;}
	.st9{fill:#FFFFFF;}
</style>
<g>
	<g>
		<polygon class="st0" points="158,38.2 191.9,42.5 189.9,25.1 		"/>
		<polygon class="st1" points="191.9,42.5 207.5,20.5 189.9,25.1 		"/>
		<polygon class="st1" points="196.7,7.8 226.5,8.7 207.5,5.2 		"/>
		<polygon class="st2" points="189.9,25.1 200.6,22.3 196.7,7.8 196.7,7.8 		"/>
		<polygon class="st4" points="158,38.2 189.9,25.1 160.8,16.5 		"/>
		<polygon class="st5" points="189.9,25.1 196.7,7.8 160.8,16.5 160.8,16.5 		"/>
		<polygon class="st4" points="207.5,5.2 179.5,0 160.8,16.5 		"/>
		<polygon class="st2" points="191.9,42.5 226.5,15.6 200.6,22.3 		"/>
		<polygon class="st2" points="17.1,2.7 50.7,31.8 56.8,1.5 		"/>
		<polygon class="st4" points="56.8,1.5 50.7,31.8 75.1,16.1 		"/>
		<polygon class="st0" points="21.8,6.8 17.1,2.7 17.1,2.7 1.6,16.3 50.7,31.8 21.8,6.8 		"/>
		<polygon class="st2" points="59.3,44.8 89.6,34.4 50.7,31.8 		"/>
		<polygon class="st5" points="1.6,16.3 0,17.8 0,29.7 34.6,43 50.7,31.8 		"/>
		<polygon class="st4" points="123,5.1 132,34.7 160.8,16.5 		"/>
		<polygon class="st6" points="89.6,34.4 111.9,35.4 123,5 		"/>
		<polygon class="st0" points="132,34.6 158,38.2 160.8,16.5 		"/>
		<polygon class="st6" points="226.5,15.6 226.5,8.7 200.6,22.3 		"/>
		<polygon class="st4" points="200.6,22.3 226.5,8.7 196.7,7.8 		"/>
		<polygon class="st7" points="50.7,31.8 89.6,34.4 75.1,16.1 		"/>
		<polygon class="st2" points="75.1,16.1 89.6,34.4 106.2,19.8 		"/>
		<polygon class="st5" points="123,5 111.9,35.4 132,34.6 		"/>
		<polygon class="st2" points="111.9,35.4 132.6,43.7 132,34.6 		"/>
		<polygon class="st6" points="0,29.7 0,67.2 50.7,31.8 		"/>
	</g>
	<g>
		<polygon class="st0" points="59.3,44.8 50.7,31.8 36.6,60.4 		"/>
		<polygon class="st1" points="0,46 25.9,63.2 36.6,60.4 		"/>
		<polygon class="st2" points="36.6,60.4 25.9,63.2 23.1,81 27,75 27,75 		"/>
		<polygon class="st4" points="50.7,31.8 0,46 36.6,60.4 		"/>
		<polygon class="st4" points="59.3,44.8 36.6,60.4 66.6,72.6 		"/>
		<polygon class="st5" points="36.6,60.4 23.1,81 49.5,65.6 		"/>
		<polygon class="st4" points="23.1,81 46.9,85.5 66.6,72.6 		"/>
		<polygon class="st4" points="111.9,35.4 89.6,34.4 94.5,50.8 		"/>
		<polygon class="st2" points="0,46 0,64.1 25.9,63.2 		"/>
		<polygon class="st6" points="226.5,55.7 226.5,15.6 191.9,42.5 		"/>
		<polygon class="st2" points="209.3,82.8 175.8,53.7 169.7,84 		"/>
		<polygon class="st6" points="169.7,84 175.8,53.7 151.4,69.3 		"/>
		<polygon class="st4" points="191.9,42.5 158,38.2 175.8,53.7 		"/>
		<polygon class="st0" points="204.7,78.7 209.3,82.8 209.3,82.8 226.5,67.7 175.8,53.7 204.7,78.7 		"/>
		<polygon class="st2" points="158,38.2 132.6,43.7 175.8,53.7 		"/>
		<polygon class="st5" points="226.5,67.7 226.5,55.7 175.8,53.7 		"/>
		<polygon class="st4" points="66.6,72.5 103.5,80.4 94.5,50.8 		"/>
		<polygon class="st6" points="122.4,65.6 132.6,43.7 103.5,80.4 		"/>
		<polygon class="st6" points="89.6,34.4 59.3,44.8 94.5,50.8 		"/>
		<polygon class="st0" points="94.5,50.8 59.3,44.8 66.6,72.6 		"/>
		<polygon class="st6" points="0,64.1 0,76.7 25.9,63.2 		"/>
		<polygon class="st4" points="23.1,81 25.9,63.2 0,76.7 		"/>
		<polygon class="st7" points="175.8,53.7 132.6,43.7 151.4,69.3 		"/>
		<polygon class="st2" points="151.4,69.3 132.6,43.7 122.4,65.6 		"/>
		<polygon class="st5" points="103.5,80.4 132.6,43.7 94.5,50.8 		"/>
		<polygon class="st0" points="132.6,43.7 111.9,35.4 94.5,50.8 		"/>
		<polygon class="st2" points="66.6,72.6 49.5,65.6 23.1,81 66.3,72.6 		"/>
	</g>
	<polygon class="st6" points="132.6,43.7 132,34.6 158,38.2 	"/>
	<polygon class="st2" points="226.5,55.7 191.9,42.5 175.8,53.7 	"/>
</g>
</svg>
