<?xml version="1.0" encoding="utf-8"?>
<!-- Generator: Adobe Illustrator 19.1.1, SVG Export Plug-In . SVG Version: 6.00 Build 0)  -->
<svg version="1.1" id="Capa_1" xmlns="http://www.w3.org/2000/svg" xmlns:xlink="http://www.w3.org/1999/xlink" x="0px" y="0px"
	 viewBox="0 0 13.2 14.2" style="enable-background:new 0 0 13.2 14.2;" xml:space="preserve">
<style type="text/css">
	.st0{clip-path:url(#SVGID_2_);}
	.st1{fill:#E6224B;}
	.st2{fill:#E6263A;}
	.st3{fill:#E94557;}
	.st4{fill:#D62042;}
	.st5{fill:#D62043;}
	.st6{fill:#E6213D;}
	.st7{fill:#8E1633;}
	.st8{fill:#E62246;}
	.st9{fill:#4A4A49;}
	.st10{fill:#8C1913;}
	.st11{fill:#C41C1B;}
	.st12{fill:#AD1917;}
	.st13{clip-path:url(#SVGID_2_);fill:none;stroke:#FFFFFF;stroke-linecap:round;stroke-linejoin:round;stroke-miterlimit:10;}
	.st14{clip-path:url(#SVGID_2_);fill:#C6C6C6;}
	.st15{fill:#FFFFFF;}
	.st16{clip-path:url(#SVGID_4_);}
	.st17{fill:none;stroke:#8C1913;stroke-width:1.5;stroke-linecap:round;stroke-linejoin:round;stroke-miterlimit:10;}
	.st18{clip-path:url(#SVGID_6_);}
	.st19{clip-path:url(#SVGID_6_);fill:#D62042;}
	.st20{clip-path:url(#SVGID_8_);}
	.st21{clip-path:url(#SVGID_8_);fill:none;stroke:#FFFFFF;stroke-linecap:round;stroke-linejoin:round;stroke-miterlimit:10;}
	.st22{clip-path:url(#SVGID_8_);fill:#C6C6C6;}
	.st23{clip-path:url(#SVGID_8_);fill:#8E1633;}
	.st24{clip-path:url(#SVGID_10_);}
	.st25{clip-path:url(#SVGID_10_);fill:#C6C6C6;}
	.st26{clip-path:url(#SVGID_10_);fill:none;stroke:#FFFFFF;stroke-linecap:round;stroke-linejoin:round;stroke-miterlimit:10;}
	.st27{clip-path:url(#SVGID_12_);}
	.st28{clip-path:url(#SVGID_12_);fill:#C6C6C6;}
	.st29{clip-path:url(#SVGID_12_);fill:none;stroke:#FFFFFF;stroke-linecap:round;stroke-linejoin:round;stroke-miterlimit:10;}
	.st30{clip-path:url(#SVGID_12_);fill:#8E1633;}
	.st31{clip-path:url(#SVGID_14_);}
	.st32{clip-path:url(#SVGID_14_);fill:none;stroke:#FFFFFF;stroke-linecap:round;stroke-linejoin:round;stroke-miterlimit:10;}
	.st33{clip-path:url(#SVGID_14_);fill:#C6C6C6;}
	.st34{clip-path:url(#SVGID_14_);fill:none;stroke:#8E1633;stroke-miterlimit:10;}
	.st35{clip-path:url(#SVGID_14_);fill:#8E1633;}
</style>
<g>
	<g>
		<path class="st15" d="M12.2,1v9.3H11h-0.6l-0.3,0.5l-0.5,0.9l-0.4,0.7l-0.4-0.7l-0.5-0.9l-0.3-0.5H7.3H1V1H12.2 M13.2,0H0v11.3
			h7.3l0.5,0.9l1.3,2l1.3-2l0.5-0.9h2.2V0L13.2,0z"/>
	</g>
	<g>
		<path class="st15" d="M3.7,4.9c-0.4,0-0.8,0.3-0.8,0.7s0.4,0.7,0.8,0.7c0.4,0,0.8-0.3,0.8-0.7S4.2,4.9,3.7,4.9L3.7,4.9z"/>
	</g>
	<g>
		<path class="st15" d="M6.6,4.9c-0.4,0-0.8,0.3-0.8,0.7s0.4,0.7,0.8,0.7c0.4,0,0.8-0.3,0.8-0.7S7,4.9,6.6,4.9L6.6,4.9z"/>
	</g>
	<g>
		<path class="st15" d="M9.5,4.9C9,4.9,8.7,5.3,8.7,5.7S9,6.4,9.5,6.4c0.4,0,0.8-0.3,0.8-0.7S9.9,4.9,9.5,4.9L9.5,4.9z"/>
	</g>
</g>
</svg>
