<?xml version="1.0" encoding="utf-8"?>
<!-- Generator: Adobe Illustrator 19.1.1, SVG Export Plug-In . SVG Version: 6.00 Build 0)  -->
<svg version="1.1" id="Capa_1" xmlns="http://www.w3.org/2000/svg" xmlns:xlink="http://www.w3.org/1999/xlink" x="0px" y="0px"
	 viewBox="0 0 18.6 22.2" style="enable-background:new 0 0 18.6 22.2;" xml:space="preserve">
<style type="text/css">
	.st0{fill:#E6224B;}
	.st1{fill:#E6263A;}
	.st2{fill:#E94557;}
	.st3{fill:#D62042;}
	.st4{fill:#D62043;}
	.st5{fill:#E6213D;}
	.st6{fill:#8E1633;}
	.st7{fill:#E62246;}
	.st8{fill:#8C1913;}
	.st9{fill:#FFFFFF;}
</style>
<g>
	<path class="st8" d="M18.6,22.2H0v-0.8c0-3.1,1.9-6,4.8-7.4c-2-1.4-3.2-3.8-3.2-6.3C1.6,3.5,5,0,9.3,0S17,3.5,17,7.7
		c0,2.5-1.2,4.8-3.2,6.3c2.9,1.5,4.8,4.3,4.8,7.4V22.2z M1.5,20.7H17c-0.3-2.7-2.3-5-5.2-5.9l-1.9-0.6l1.9-0.8
		c2.3-1,3.7-3.2,3.7-5.7c0-3.4-2.8-6.2-6.2-6.2S3.1,4.3,3.1,7.7c0,2.5,1.5,4.7,3.7,5.7l1.9,0.8l-1.9,0.6C3.9,15.7,1.9,18,1.5,20.7z"
		/>
</g>
</svg>
