<?xml version="1.0" encoding="utf-8"?>
<!-- Generator: Adobe Illustrator 19.1.0, SVG Export Plug-In . SVG Version: 6.00 Build 0)  -->
<svg version="1.1" id="Capa_1" xmlns="http://www.w3.org/2000/svg" xmlns:xlink="http://www.w3.org/1999/xlink" x="0px" y="0px"
	 viewBox="0 0 57.1 57.1" style="enable-background:new 0 0 57.1 57.1;" xml:space="preserve">
<style type="text/css">
	.st0{fill:#E6224B;}
	.st1{fill:#E6263A;}
	.st2{fill:#E94557;}
	.st3{fill:#D62042;}
	.st4{fill:#D62043;}
	.st5{fill:#E6213D;}
	.st6{fill:#8E1633;}
	.st7{fill:#E62246;}
	.st8{fill:#FFFFFF;}
</style>
<g>
	<rect x="0" y="0" class="st6" width="57.1" height="57.1"/>
	<path class="st8" d="M46.9,17.2c-1.3,0.6-2.8,1-4.3,1.2c1.5-0.9,2.7-2.4,3.3-4.2c-1.4,0.9-3.1,1.5-4.8,1.8
		c-1.4-1.5-3.3-2.4-5.5-2.4c-4.1,0-7.5,3.4-7.5,7.5c0,0.6,0.1,1.2,0.2,1.7c-6.2-0.3-11.8-3.3-15.5-7.8c-0.6,1.1-1,2.4-1,3.8
		c0,2.6,1.3,4.9,3.3,6.2c-1.2,0-2.4-0.4-3.4-0.9v0.1c0,3.6,2.6,6.7,6,7.4c-0.6,0.2-1.3,0.3-2,0.3c-0.5,0-1,0-1.4-0.1
		c1,3,3.7,5.2,7,5.2c-2.6,2-5.8,3.2-9.3,3.2c-0.6,0-1.2,0-1.8-0.1c3.3,2.1,7.3,3.4,11.5,3.4c13.8,0,21.4-11.4,21.4-21.4
		c0-0.3,0-0.6,0-1C44.6,20.1,45.9,18.7,46.9,17.2z"/>
</g>
</svg>
