<?xml version="1.0" encoding="utf-8"?>
<!-- Generator: Adobe Illustrator 19.1.0, SVG Export Plug-In . SVG Version: 6.00 Build 0)  -->
<svg version="1.1" id="Capa_1" xmlns="http://www.w3.org/2000/svg" xmlns:xlink="http://www.w3.org/1999/xlink" x="0px" y="0px"
	 viewBox="-215 -17.5 165 874.4" preserveAspectRatio="xMinYMin" style="enable-background:new -215 -17.5 165 874.4;" xml:space="preserve">
<style type="text/css">
	.st0{fill:#E6254D;}
	.st1{fill:#E6293B;}
	.st2{fill:#E94757;}
	.st3{fill:#D72244;}
	.st4{fill:#E6243E;}
	.st5{fill:#8F1634;}
	.st6{fill:#E62647;}
</style>
<polygon class="st0" points="-215,-17.5 -118.5,-17.5 -60.4,48.7 -55.6,201.8 -112.3,272.3 -126.4,392.5 -69.4,457.3 -113.6,603.5 
	-50,675.7 -83.7,857.7 -215,857.7 "/>
<g>
	<g>
		<polygon class="st0" points="-197.5,592.7 -213.9,723.3 -146.8,715.7 		"/>
		<polygon class="st1" points="-213.9,723.3 -129.3,783.6 -146.8,715.7 		"/>
		<polygon class="st1" points="-80.2,741.9 -83.7,856.9 -70.1,783.6 		"/>
		<polygon class="st2" points="-146.8,715.7 -136.1,757.1 -80.2,741.9 -80.2,741.9 		"/>
		<polygon class="st3" points="-197.5,592.7 -146.8,715.7 -113.6,603.5 		"/>
		<polygon class="st4" points="-146.8,715.7 -80.2,741.9 -113.6,603.5 -113.6,603.5 		"/>
		<polygon class="st3" points="-70.1,783.6 -50,675.7 -113.6,603.5 		"/>
		<polygon class="st2" points="-213.9,723.3 -110.4,856.9 -136.1,757.1 		"/>
		<polygon class="st2" points="-60.4,48.7 -172.6,178.4 -55.6,201.8 		"/>
		<polygon class="st3" points="-55.6,201.8 -172.6,178.4 -112.3,272.3 		"/>
		<polygon class="st0" points="-76.1,66.8 -60.4,48.7 -60.4,48.7 -113.1,-11.3 -172.6,178.4 		"/>
		<polygon class="st2" points="-215,206.2 -215,234.7 -182.8,328.3 -172.6,178.4 		"/>
		<polygon class="st4" points="-113.1,-11.3 -118.5,-17.5 -164.8,-17.5 -214.2,111.6 -172.6,178.4 		"/>
		<polygon class="st3" points="-69.6,457.3 -184,492 -113.8,603.5 		"/>
		<polygon class="st5" points="-182.8,328.3 -186.8,414.6 -69.4,457.3 		"/>
		<polygon class="st0" points="-183.8,492 -197.5,592.7 -113.6,603.5 		"/>
		<polygon class="st5" points="-110.4,856.9 -83.7,856.9 -136.1,757.1 		"/>
		<polygon class="st3" points="-136.1,757.1 -83.7,856.9 -80.2,741.9 		"/>
		<polygon class="st6" points="-172.6,178.4 -182.8,328.3 -112.3,272.3 		"/>
		<polygon class="st2" points="-112.3,272.3 -182.8,328.3 -126.4,392.5 		"/>
		<polygon class="st4" points="-69.4,457.3 -186.8,414.6 -183.8,492 		"/>
		<polygon class="st2" points="-186.8,414.6 -215,485.3 -215,494.1 -183.8,492 		"/>
		<polygon class="st5" points="-164.8,-17.5 -215,-17.5 -215,80.4 -172.6,178.4 		"/>
	</g>
	<g>
		<polygon class="st0" points="-215,206.2 -172.6,178.4 -215,157.4 		"/>
		<polygon class="st3" points="-172.6,178.4 -215,27.1 -215,157.4 		"/>
		<polygon class="st3" points="-186.8,414.6 -182.8,328.3 -215,338 -215,382.7 		"/>
		<polygon class="st5" points="-215,856.9 -110.4,856.9 -213.9,723.3 -215,726.2 		"/>
		<polygon class="st3" points="-213.9,723.3 -197.5,592.7 -215,612.7 -214.9,721.9 		"/>
		<polygon class="st2" points="-197.5,592.7 -215,511.1 -215,612.7 		"/>
		<polygon class="st5" points="-182.8,328.3 -215,234.7 -215,338 		"/>
		<polygon class="st0" points="-215,485.3 -186.8,414.6 -215,382.7 		"/>
	</g>
	<polygon class="st5" points="-215,494.1 -183.8,492 -197.5,592.7 -215,511.1 	"/>
	<polygon class="st2" points="-215,726.2 -213.9,723.3 -215,721.7 	"/>
</g>
</svg>
