<?xml version="1.0" encoding="utf-8"?>
<!-- Generator: Adobe Illustrator 19.1.0, SVG Export Plug-In . SVG Version: 6.00 Build 0)  -->
<svg version="1.1" id="Capa_1" xmlns="http://www.w3.org/2000/svg" xmlns:xlink="http://www.w3.org/1999/xlink" x="0px" y="0px"
	 viewBox="-215 -17.5 165 874.4" style="enable-background:new -215 -17.5 165 874.4;" xml:space="preserve">
<style type="text/css">
	.st0{fill:#8F1634;}
	.st1{fill:none;}
	.st2{fill:#E94757;}
	.st3{fill:#E6254D;}
	.st4{fill:#E6293B;}
	.st5{fill:#D72244;}
	.st6{fill:#E6243E;}
	.st7{fill:#E62647;}
</style>
<polygon class="st0" points="-181.3,-17.5 -50,-17.5 -50,856.9 -146.5,856.9 -204.6,790.8 -209.3,637.7 -152.7,567.2 -138.4,455.1 
	-195.6,382.1 -165.2,239.6 -215,163.7 -197.9,71.8 "/>
<rect x="-215" y="-17.5" class="st1" width="165" height="874.4"/>
<g>
	<g>
		<polygon class="st2" points="-58,211.5 -50,234.7 -50,206.2 		"/>
		<polygon class="st2" points="-50,485.3 -53.6,494.3 -50,494.1 		"/>
		<polygon class="st0" points="-50,-17.5 -144.4,-17.5 -50,27.1 		"/>
	</g>
	<g>
		<polygon class="st3" points="-58,211.5 -50,206.2 -50,157.4 -118.2,123.7 		"/>
		<polygon class="st4" points="-62.5,-17.5 -128.9,82.4 -118.2,123.7 		"/>
		<polygon class="st2" points="-118.2,123.7 -128.9,82.4 -197.9,71.8 -174.7,86.9 -174.7,86.9 		"/>
		<polygon class="st5" points="-50,27.1 -62.5,-17.5 -118.2,123.7 -50,157.4 		"/>
		<polygon class="st5" points="-58,211.5 -118.2,123.7 -165.2,239.6 		"/>
		<polygon class="st6" points="-118.2,123.7 -197.9,71.8 -138.4,173.6 		"/>
		<polygon class="st5" points="-197.9,71.8 -215,163.7 -165.2,239.6 		"/>
		<polygon class="st5" points="-50,338.1 -81.2,347.5 -50,382.7 		"/>
		<polygon class="st2" points="-62.5,-17.5 -132.3,-17.5 -128.9,82.4 		"/>
		<polygon class="st0" points="-100.2,856.9 -50,856.9 -50,726.2 		"/>
		<polygon class="st2" points="-204.6,790.8 -92.4,661.1 -209.3,637.7 		"/>
		<polygon class="st0" points="-209.3,637.7 -92.4,661.1 -152.7,567.2 		"/>
		<polygon class="st5" points="-50,612.7 -92.4,661.1 -50,721.7 		"/>
		<polygon class="st3" points="-188.9,772.7 -204.6,790.8 -204.6,790.8 -146.5,856.9 -92.4,661.1 		"/>
		<polygon class="st2" points="-50,511.1 -53.6,494.3 -92.4,661.1 -50,612.7 		"/>
		<polygon class="st6" points="-146.5,856.9 -100.2,856.9 -92.4,661.1 		"/>
		<polygon class="st5" points="-165.2,239.6 -195.6,382.1 -81,347.5 		"/>
		<polygon class="st0" points="-138.4,455.1 -53.6,494.3 -195.6,382.1 		"/>
		<polygon class="st0" points="-50,234.7 -58,211.5 -81.2,347.5 -50,338.1 		"/>
		<polygon class="st3" points="-81.2,347.5 -58,211.5 -165.2,239.6 		"/>
		<polygon class="st0" points="-132.3,-17.5 -181.3,-17.5 -128.9,82.4 		"/>
		<polygon class="st5" points="-197.9,71.8 -128.9,82.4 -181.3,-17.5 		"/>
		<polygon class="st7" points="-92.4,661.1 -53.6,494.3 -152.7,567.2 		"/>
		<polygon class="st2" points="-152.7,567.2 -53.6,494.3 -138.4,455.1 		"/>
		<polygon class="st6" points="-195.6,382.1 -53.6,494.3 -81.2,347.5 		"/>
		<polygon class="st3" points="-53.6,494.3 -50,485.3 -50,382.7 -81.2,347.5 		"/>
		<polygon class="st2" points="-165.2,239.6 -138.4,173.6 -197.9,71.8 		"/>
	</g>
	<polygon class="st0" points="-53.6,494.3 -50,494.1 -50,511.1 	"/>
	<polygon class="st2" points="-100.2,856.9 -50,726.2 -50,721.7 -92.4,661.1 	"/>
</g>
</svg>
